<svg xmlns="http://www.w3.org/2000/svg" xmlns:xlink="http://www.w3.org/1999/xlink" width="500" zoomAndPan="magnify" viewBox="0 0 375 374.999991" height="500" preserveAspectRatio="xMidYMid meet" version="1.0"><defs><clipPath id="0c53b46aa3"><path d="M 73.808594 10 L 264 10 L 264 313 L 73.808594 313 Z M 73.808594 10 " clip-rule="nonzero"/></clipPath></defs><g clip-path="url(#0c53b46aa3)"><path fill="#120037" d="M 114.0625 292.691406 C 113.800781 282.75 114.324219 272.808594 114.203125 262.847656 C 113.808594 231.4375 114.054688 200.03125 114.078125 168.621094 C 114.078125 167.6875 113.570312 166.265625 114.785156 165.941406 C 116.0625 165.59375 116.175781 167.144531 116.621094 167.941406 C 126.316406 185.316406 135.957031 202.726562 145.667969 220.09375 C 146.128906 220.914062 146.183594 222.375 147.398438 222.382812 C 148.785156 222.398438 148.875 220.824219 149.324219 219.929688 C 158.585938 201.652344 168.882812 183.941406 178.808594 166.023438 C 182.539062 159.285156 186.601562 152.734375 189.816406 145.710938 C 190.109375 145.0625 190.414062 144.414062 190.710938 143.769531 C 191.636719 142.449219 192.667969 141.195312 193.464844 139.800781 C 196.945312 133.644531 200.398438 127.464844 203.78125 121.25 C 207.75 113.988281 212.136719 106.957031 215.683594 99.464844 C 215.757812 99.277344 215.832031 99.085938 215.914062 98.898438 C 217.183594 97.679688 217.972656 96.195312 218.390625 94.496094 C 218.578125 94.144531 218.757812 93.785156 218.945312 93.425781 C 220.25 92.210938 221.0625 90.710938 221.472656 88.988281 C 221.652344 88.644531 221.832031 88.300781 222.011719 87.957031 C 222.027344 87.71875 222.054688 87.488281 222.09375 87.269531 C 222.207031 86.597656 222.445312 85.996094 222.773438 85.449219 C 222.445312 85.996094 222.207031 86.605469 222.09375 87.269531 C 222.054688 87.488281 222.027344 87.71875 222.011719 87.957031 C 223.308594 86.726562 224.109375 85.21875 224.535156 83.496094 C 224.71875 83.152344 224.898438 82.816406 225.078125 82.472656 C 225.054688 82.375 225.035156 82.285156 225.027344 82.203125 C 225.035156 82.285156 225.054688 82.375 225.078125 82.472656 C 225.636719 82.179688 225.953125 81.734375 225.921875 81.089844 C 225.996094 80.898438 226.078125 80.703125 226.160156 80.515625 C 227.570312 79.144531 228.398438 77.449219 228.988281 75.605469 C 229.0625 75.40625 229.144531 75.210938 229.21875 75.015625 C 231.980469 71.195312 234.257812 67.097656 236.136719 62.777344 C 236.242188 62.523438 236.347656 62.269531 236.464844 62.023438 C 239.578125 58.039062 241.636719 53.417969 244.070312 49.03125 C 248.972656 40.21875 254.199219 31.589844 258.609375 22.515625 C 259.019531 21.746094 259.429688 20.980469 259.839844 20.210938 C 259.863281 18.800781 260.4375 17.71875 261.683594 17.015625 C 263.945312 13.449219 263.945312 13.449219 260.371094 11.417969 C 259.929688 11.164062 259.445312 10.980469 259.042969 10.679688 C 257.460938 9.464844 256.535156 10.179688 255.734375 11.671875 C 253.144531 16.480469 250.511719 21.269531 247.898438 26.0625 C 248.109375 27.292969 247.757812 28.21875 246.511719 28.679688 C 245.832031 29.90625 245.152344 31.128906 244.480469 32.359375 C 244.988281 33.195312 244.488281 33.390625 243.78125 33.449219 C 243.617188 33.539062 243.527344 33.679688 243.519531 33.867188 C 242.980469 36.597656 241.871094 39.015625 239.636719 40.800781 C 239.554688 40.988281 239.472656 41.1875 239.390625 41.382812 C 238.0625 45.210938 236.308594 48.792969 233.535156 51.800781 C 233.363281 51.933594 233.28125 52.105469 233.289062 52.316406 C 230.609375 56.226562 228.300781 60.335938 226.390625 64.671875 C 226.300781 64.882812 226.199219 65.097656 226.109375 65.308594 C 224.339844 67.515625 222.871094 69.890625 222.027344 72.621094 C 222.027344 72.621094 221.953125 72.808594 221.953125 72.808594 C 219.882812 75.300781 218.488281 78.179688 217.226562 81.128906 C 217.136719 81.332031 217.046875 81.539062 216.953125 81.742188 C 215.144531 83.925781 213.765625 86.34375 212.871094 89.039062 C 212.789062 89.226562 212.710938 89.425781 212.628906 89.613281 C 212.535156 89.898438 212.453125 90.195312 212.363281 90.480469 C 212.273438 90.769531 212.183594 91.054688 212.085938 91.34375 C 212.183594 91.054688 212.273438 90.777344 212.363281 90.480469 C 212.453125 90.195312 212.546875 89.90625 212.628906 89.613281 C 210.914062 91.332031 209.972656 93.507812 209.085938 95.710938 C 208.914062 95.808594 208.832031 95.964844 208.839844 96.160156 C 206.832031 98.882812 205.226562 101.824219 203.953125 104.957031 C 203.839844 105.203125 203.726562 105.441406 203.609375 105.6875 C 203.085938 105.890625 202.742188 106.195312 202.9375 106.824219 C 203.011719 106.808594 203.078125 106.785156 203.144531 106.75 C 203.332031 106.667969 203.472656 106.5625 203.554688 106.414062 C 203.609375 106.316406 203.644531 106.210938 203.652344 106.085938 C 203.644531 106.210938 203.609375 106.316406 203.554688 106.414062 C 203.472656 106.554688 203.332031 106.667969 203.144531 106.75 C 203.078125 106.777344 203.011719 106.800781 202.9375 106.824219 C 202.511719 107.597656 202.09375 108.367188 201.667969 109.144531 C 201.167969 109.457031 200.773438 109.824219 200.898438 110.488281 C 200.136719 111.875 199.375 113.25 198.601562 114.636719 C 198.617188 114.71875 198.636719 114.800781 198.644531 114.882812 C 198.660156 115.039062 198.652344 115.1875 198.617188 115.308594 C 198.652344 115.179688 198.660156 115.039062 198.644531 114.882812 C 198.636719 114.800781 198.617188 114.71875 198.601562 114.636719 C 198.078125 114.921875 197.726562 115.316406 197.832031 115.972656 C 197.921875 115.949219 198.003906 115.921875 198.078125 115.890625 C 198.003906 115.921875 197.921875 115.949219 197.832031 115.972656 C 197.070312 117.359375 196.308594 118.734375 195.546875 120.121094 C 195.546875 120.472656 195.511719 120.800781 195.445312 121.113281 C 195.511719 120.800781 195.546875 120.464844 195.546875 120.121094 C 194.496094 120.933594 193.996094 122.046875 193.757812 123.316406 C 193.339844 124.078125 192.914062 124.839844 192.496094 125.597656 C 191.996094 125.90625 191.609375 126.285156 191.734375 126.949219 C 191.617188 127.1875 191.496094 127.421875 191.382812 127.660156 C 191.316406 127.675781 191.191406 127.6875 191.191406 127.703125 C 191.191406 127.816406 191.21875 127.941406 191.234375 128.054688 C 190.636719 129.054688 190.039062 130.054688 189.429688 131.054688 C 189.457031 131.144531 189.464844 131.226562 189.480469 131.308594 C 189.472656 131.226562 189.457031 131.144531 189.429688 131.054688 C 188.898438 131.359375 188.609375 131.800781 188.636719 132.421875 C 188.539062 132.644531 188.4375 132.867188 188.339844 133.078125 C 188.382812 133.226562 188.390625 133.367188 188.390625 133.488281 C 188.398438 133.367188 188.382812 133.226562 188.339844 133.078125 C 187.847656 133.324219 187.464844 133.628906 187.691406 134.269531 C 187.496094 134.667969 187.300781 135.070312 187.101562 135.480469 C 185.921875 135.957031 185.726562 137.175781 185.199219 138.113281 C 179.039062 149.085938 172.921875 160.085938 166.773438 171.070312 C 165.191406 173.890625 164.914062 173.90625 163.347656 171.152344 C 151.210938 149.734375 138.949219 128.390625 127.054688 106.851562 C 121.964844 97.628906 116.914062 88.390625 111.824219 79.179688 C 109.539062 75.03125 106.167969 71.890625 101.996094 70.039062 C 88.703125 64.136719 73.921875 73.933594 73.90625 88.507812 C 73.875 127.332031 73.890625 166.160156 73.890625 204.980469 C 73.890625 234.257812 73.914062 263.539062 73.890625 292.808594 C 73.882812 303.519531 84.175781 312.699219 93.957031 312.390625 C 104.71875 312.054688 114.332031 303.128906 114.0625 292.691406 Z M 211.921875 91.769531 C 211.816406 92.046875 211.710938 92.324219 211.585938 92.597656 C 211.710938 92.324219 211.816406 92.046875 211.921875 91.769531 Z M 211.921875 91.769531 " fill-opacity="1" fill-rule="nonzero"/></g><path fill="#120037" d="M 300.824219 292.964844 C 300.847656 224.601562 300.847656 156.242188 300.839844 87.882812 C 300.839844 86.078125 300.996094 84.195312 299.726562 82.636719 C 299.570312 82.105469 299.414062 81.570312 299.265625 81.046875 C 299.371094 80.382812 298.980469 79.964844 298.5625 79.554688 C 298.570312 79.351562 298.488281 79.1875 298.316406 79.0625 C 298.378906 78.703125 298.234375 78.488281 297.871094 78.414062 C 297.644531 77.472656 297.019531 76.792969 296.363281 76.128906 C 296.339844 75.433594 295.863281 75.089844 295.324219 74.808594 C 295.101562 74.613281 294.878906 74.40625 294.652344 74.210938 C 294.527344 73.523438 294.144531 73.121094 293.421875 73.078125 C 293.421875 73.078125 293.339844 73.015625 293.339844 73.015625 C 292.832031 72.007812 291.929688 71.546875 290.914062 71.242188 C 290.808594 71.105469 290.660156 71.039062 290.480469 71.046875 C 289.4375 69.832031 288.035156 69.40625 286.511719 69.234375 C 286.085938 69.160156 285.652344 69.097656 285.226562 69.023438 C 282.234375 67.636719 279.234375 67.507812 276.226562 68.980469 C 275.59375 69.070312 274.960938 69.160156 274.332031 69.253906 C 270.847656 69.972656 267.445312 70.898438 264.578125 73.160156 C 264.378906 73.242188 264.175781 73.332031 263.972656 73.414062 C 263.332031 73.390625 262.898438 73.71875 262.59375 74.25 C 262.390625 74.242188 262.21875 74.316406 262.085938 74.480469 C 261.09375 74.777344 260.234375 75.277344 259.726562 76.203125 C 255.035156 84.742188 249.945312 93.0625 245.691406 101.84375 C 245.542969 101.957031 245.480469 102.113281 245.503906 102.300781 C 242.042969 107.367188 239.175781 112.769531 236.519531 118.285156 C 236.371094 118.40625 236.300781 118.5625 236.324219 118.757812 C 235.308594 119.644531 234.667969 120.734375 234.472656 122.070312 C 234.078125 122.792969 233.691406 123.523438 233.300781 124.25 C 232.234375 125.105469 231.609375 126.21875 231.382812 127.554688 C 231.003906 128.285156 230.628906 129.015625 230.242188 129.742188 C 228.929688 130.980469 228.101562 132.496094 227.683594 134.25 C 227.511719 134.570312 227.347656 134.890625 227.175781 135.210938 C 225.027344 137.867188 223.480469 140.859375 222.234375 144.023438 C 221.839844 144.742188 221.445312 145.464844 221.054688 146.1875 C 217.609375 151.285156 214.675781 156.667969 212.078125 162.234375 C 211.929688 162.316406 211.863281 162.441406 211.882812 162.605469 C 211.414062 163.25 210.875 163.867188 210.488281 164.5625 C 202.027344 179.710938 193.585938 194.875 185.136719 210.03125 C 167.339844 241.9375 149.519531 273.839844 131.742188 305.757812 C 121.867188 323.496094 112.039062 341.265625 102.195312 359.019531 C 101.757812 359.808594 100.792969 360.714844 101.300781 361.46875 C 102.53125 363.308594 104.703125 364.011719 106.621094 364.808594 C 108.144531 365.445312 108.472656 363.609375 109.011719 362.625 C 121.210938 340.78125 133.382812 318.921875 145.570312 297.070312 C 152.046875 285.464844 158.539062 273.863281 165.054688 262.273438 C 165.691406 261.144531 166.070312 259.25 167.25 259.167969 C 168.800781 259.0625 169.09375 261.078125 169.773438 262.257812 C 176.347656 273.636719 192.765625 275.890625 201.652344 266.292969 C 206.28125 261.292969 209.109375 255.003906 211.914062 248.816406 C 211.914062 248.816406 211.996094 248.683594 211.996094 248.683594 C 212.683594 247.703125 213.453125 246.765625 214.046875 245.726562 C 221.382812 232.800781 228.75 219.90625 235.972656 206.914062 C 239.152344 201.195312 242.75 195.703125 245.347656 189.667969 C 245.453125 189.464844 245.5625 189.257812 245.667969 189.054688 C 246.035156 189.046875 246.234375 188.90625 246.109375 188.503906 C 246.242188 188.183594 246.382812 187.859375 246.511719 187.539062 C 247.144531 187.277344 247.535156 186.859375 247.453125 186.121094 C 247.527344 185.9375 247.601562 185.75 247.683594 185.570312 C 248.355469 185.367188 248.601562 184.914062 248.488281 184.234375 C 248.855469 183.503906 249.226562 182.765625 249.59375 182.039062 C 250.175781 181.757812 250.617188 181.375 250.542969 180.644531 C 250.871094 180.101562 251.199219 179.5625 251.527344 179.023438 C 251.988281 178.628906 252.347656 178.195312 252.257812 177.539062 C 252.398438 177.21875 252.542969 176.90625 252.683594 176.585938 C 253.324219 176.292969 253.707031 175.847656 253.570312 175.09375 C 253.699219 174.972656 253.757812 174.816406 253.734375 174.636719 C 254.40625 174.398438 254.742188 173.949219 254.617188 173.210938 C 254.996094 172.523438 255.371094 171.824219 255.75 171.136719 C 256.390625 170.832031 256.757812 170.375 256.644531 169.621094 C 256.78125 169.496094 256.839844 169.339844 256.824219 169.160156 C 257.503906 168.921875 257.789062 168.457031 257.675781 167.742188 C 258.042969 167.039062 258.414062 166.332031 258.78125 165.628906 C 259.378906 165.285156 260.011719 165.25 260.660156 165.457031 C 260.363281 170.085938 260.339844 174.726562 260.660156 179.359375 C 260.167969 180.144531 260.117188 180.941406 260.644531 181.742188 C 260.332031 183.792969 260.4375 185.839844 260.683594 187.890625 C 260.136719 189.300781 260.136719 190.710938 260.683594 192.121094 C 260.644531 193.234375 260.5625 194.339844 260.5625 195.457031 C 260.554688 227.300781 260.554688 259.136719 260.554688 290.980469 C 260.554688 291.988281 260.636719 293.003906 260.683594 294.011719 C 261.054688 295.054688 261.390625 296.109375 261.742188 297.152344 C 261.390625 296.101562 261.054688 295.054688 260.683594 294.011719 C 260.160156 298.371094 262.265625 301.839844 264.734375 305.035156 C 271.234375 313.464844 283.921875 315.300781 291.707031 309.054688 C 291.914062 309.035156 292.070312 308.945312 292.175781 308.78125 C 294.125 307.929688 295.570312 306.570312 296.429688 304.609375 C 296.429688 304.609375 296.488281 304.511719 296.488281 304.511719 C 297.035156 304.25 297.453125 303.898438 297.445312 303.226562 C 297.601562 303.09375 297.683594 302.929688 297.691406 302.726562 C 298.863281 302.003906 298.996094 300.734375 299.347656 299.585938 C 299.519531 298.921875 299.683594 298.257812 299.855469 297.585938 C 299.757812 297.324219 299.691406 297.0625 299.644531 296.800781 C 299.683594 297.0625 299.757812 297.324219 299.855469 297.585938 C 301.101562 296.242188 300.824219 294.535156 300.824219 292.964844 Z M 299.660156 294.847656 C 299.691406 294.585938 299.742188 294.332031 299.789062 294.070312 C 299.75 294.332031 299.699219 294.585938 299.660156 294.847656 Z M 299.660156 294.847656 " fill-opacity="1" fill-rule="nonzero"/></svg>